C:\Users\r0593348\3dpredictsim\Results\Batchsim_tmt_linear\Pog_s1_tmt_aCst_d02_k1000_ig24_pas_GRF.mot
nRows=17
nColumns=19

name C:\Users\r0593348\3dpredictsim\Results\Batchsim_tmt_linear\Pog_s1_tmt_aCst_d02_k1000_ig24_pas_GRF.mot
datacolumns 19
datarows 17
range 0.5528038534 0.7297010865
endheader
time 	ground_force_vx	ground_force_vy	ground_force_vz	ground_force_px	ground_force_py	ground_force_pz	1_ground_force_vx	1_ground_force_vy	1_ground_force_vz	1_ground_force_px	1_ground_force_py	1_ground_force_pz	ground_torque_x	ground_torque_y	ground_torque_z	1_ground_torque_x	1_ground_torque_y	1_ground_torque_z
        0.5528038534	       98.3962560986	      491.1947474635	        3.8292555514	        0.3738699663	        0.0000000000	        0.0337875081	      -78.0974054830	       63.9388370140	      -29.6790792773	        0.8582016967	        0.0000000000	       -0.0381612362	        0.0000000000	        0.0000000000	        0.0000000000	        0.0000000000	        0.0000000000	        0.0000000000	
        0.5638599304	       80.0188805218	      408.7251262220	        8.5172660683	        0.3776454698	        0.0000000000	        0.0326855158	     -124.2885470536	      141.5811609511	      -74.4266245492	        0.8657968678	        0.0000000000	       -0.0357730451	        0.0000000000	        0.0000000000	        0.0000000000	        0.0000000000	        0.0000000000	        0.0000000000	
        0.5749160075	       60.6153749533	      319.5235636921	        9.4800353209	        0.3834675068	        0.0000000000	        0.0305014959	      -50.3484394940	      285.8439792187	      -34.0998578060	        0.8718769026	        0.0000000000	       -0.0333519884	        0.0000000000	        0.0000000000	        0.0000000000	        0.0000000000	        0.0000000000	        0.0000000000	
        0.5859720846	       31.0681405919	      213.6579316758	        5.8822089119	        0.3948099526	        0.0000000000	        0.0252677488	      -45.8050001933	      456.7741385192	       -4.0243785112	        0.8763176132	        0.0000000000	       -0.0335507706	        0.0000000000	        0.0000000000	        0.0000000000	        0.0000000000	        0.0000000000	        0.0000000000	
        0.5970281616	       10.6228278039	      139.6101291240	        8.5021315389	        0.4104779843	        0.0000000000	        0.0170861699	      -79.3369941396	      665.2364124168	        7.4802207154	        0.8848974462	        0.0000000000	       -0.0360944370	        0.0000000000	        0.0000000000	        0.0000000000	        0.0000000000	        0.0000000000	        0.0000000000	
        0.6080842387	        1.1064988909	      111.9251429063	       10.3312666746	        0.4099586189	        0.0000000000	        0.0175284949	     -104.8958978090	      806.3671257953	       13.0258496302	        0.8910117675	        0.0000000000	       -0.0378632186	        0.0000000000	        0.0000000000	        0.0000000000	        0.0000000000	        0.0000000000	        0.0000000000	
        0.6191403158	       -2.7085273118	       74.0456380698	        9.6242190264	        0.4104224835	        0.0000000000	        0.0175905790	     -113.4288023477	      861.9558185301	       14.3140613503	        0.8950643116	        0.0000000000	       -0.0389054690	        0.0000000000	        0.0000000000	        0.0000000000	        0.0000000000	        0.0000000000	        0.0000000000	
        0.6301963928	       -8.6526823762	       30.9971301435	        5.5800195276	        0.4100828693	        0.0000000000	        0.0175196420	     -110.1724616972	      862.0364562451	       14.1763127760	        0.8982037269	        0.0000000000	       -0.0395045044	        0.0000000000	        0.0000000000	        0.0000000000	        0.0000000000	        0.0000000000	        0.0000000000	
        0.6412524699	        0.1207568693	       -0.1208727914	       -0.0032370432	        0.0000000000	        0.0000000000	        0.0000000000	     -101.1980868688	      841.3075965375	       14.2572280189	        0.9013615252	        0.0000000000	       -0.0397982423	        0.0000000000	        0.0000000000	        0.0000000000	        0.0000000000	        0.0000000000	        0.0000000000	
        0.6523085470	        0.0001575798	       -0.0001298346	        0.0000086723	        0.0000000000	        0.0000000000	        0.0000000000	      -88.8788224203	      807.8195122823	       14.9006996899	        0.9046538214	        0.0000000000	       -0.0399083940	        0.0000000000	        0.0000000000	        0.0000000000	        0.0000000000	        0.0000000000	        0.0000000000	
        0.6633646240	        0.0000597601	       -0.0000428563	        0.0000044308	        0.0000000000	        0.0000000000	        0.0000000000	      -77.2605991934	      770.3450622611	       15.2570851306	        0.9084136109	        0.0000000000	       -0.0399289541	        0.0000000000	        0.0000000000	        0.0000000000	        0.0000000000	        0.0000000000	        0.0000000000	
        0.6744207011	        0.0005369480	       -0.0003451587	        0.0000447965	        0.0000000000	        0.0000000000	        0.0000000000	      -67.2702865084	      736.2072411896	       15.3263209120	        0.9127229902	        0.0000000000	       -0.0398360954	        0.0000000000	        0.0000000000	        0.0000000000	        0.0000000000	        0.0000000000	        0.0000000000	
        0.6854767782	        0.0061860092	       -0.0036449811	        0.0005486633	        0.0000000000	        0.0000000000	        0.0000000000	      -57.4139006130	      703.3064922354	       15.7699973583	        0.9169809428	        0.0000000000	       -0.0397378276	        0.0000000000	        0.0000000000	        0.0000000000	        0.0000000000	        0.0000000000	        0.0000000000	
        0.6965328552	       -0.0280810757	        0.0153989678	       -0.0025953745	        0.0000000000	        0.0000000000	        0.0000000000	      -47.7628612354	      672.3833320297	       16.2768732387	        0.9210742736	        0.0000000000	       -0.0397009721	        0.0000000000	        0.0000000000	        0.0000000000	        0.0000000000	        0.0000000000	        0.0000000000	
        0.7075889323	       -0.0195001235	        0.0100583080	       -0.0018631771	        0.0000000000	        0.0000000000	        0.0000000000	      -39.1715122338	      645.6423484559	       16.8218329945	        0.9252229102	        0.0000000000	       -0.0397184269	        0.0000000000	        0.0000000000	        0.0000000000	        0.0000000000	        0.0000000000	        0.0000000000	
        0.7186450094	       -0.0132075010	        0.0064639136	       -0.0012982398	        0.0000000000	        0.0000000000	        0.0000000000	      -32.1629755771	      623.7027361089	       17.5139813661	        0.9294945863	        0.0000000000	       -0.0397640979	        0.0000000000	        0.0000000000	        0.0000000000	        0.0000000000	        0.0000000000	        0.0000000000	
        0.7297010865	       -0.0114032933	        0.0053349339	       -0.0011449247	        0.0000000000	        0.0000000000	        0.0000000000	      -26.2942049030	      606.4925383768	       18.1201246621	        0.9339034199	        0.0000000000	       -0.0398219965	        0.0000000000	        0.0000000000	        0.0000000000	        0.0000000000	        0.0000000000	        0.0000000000	
